<mxfile host="app.diagrams.net" modified="2021-12-12T08:45:33.249Z" agent="5.0 (Macintosh; Intel Mac OS X 10_15_7) AppleWebKit/537.36 (KHTML, like Gecko) Chrome/96.0.4664.55 Safari/537.36" etag="CoI1HBVbuBVhjktBf39H" version="15.9.4" type="github">
  <diagram id="v5lqzvrqmiUheHWRtbeC" name="第 1 页">
    <mxGraphModel dx="1426" dy="771" grid="1" gridSize="10" guides="1" tooltips="1" connect="1" arrows="1" fold="1" page="1" pageScale="1" pageWidth="827" pageHeight="1169" math="0" shadow="0">
      <root>
        <mxCell id="0" />
        <mxCell id="1" parent="0" />
        <mxCell id="eDO9T0eiQl6-XyQjg8_s-1" value="&lt;font style=&quot;font-size: 15px&quot; face=&quot;Comic Sans MS&quot;&gt;2&lt;/font&gt;" style="rounded=0;whiteSpace=wrap;html=1;fillColor=#d5e8d4;strokeColor=#82b366;" vertex="1" parent="1">
          <mxGeometry x="240" y="40" width="40" height="40" as="geometry" />
        </mxCell>
        <mxCell id="eDO9T0eiQl6-XyQjg8_s-6" value="&lt;font style=&quot;font-size: 15px&quot; face=&quot;Comic Sans MS&quot;&gt;7&lt;/font&gt;" style="rounded=0;whiteSpace=wrap;html=1;fillColor=#d5e8d4;strokeColor=#82b366;" vertex="1" parent="1">
          <mxGeometry x="280" y="40" width="40" height="40" as="geometry" />
        </mxCell>
        <mxCell id="eDO9T0eiQl6-XyQjg8_s-7" value="&lt;font style=&quot;font-size: 15px&quot; face=&quot;Comic Sans MS&quot;&gt;9&lt;/font&gt;" style="rounded=0;whiteSpace=wrap;html=1;fillColor=#d5e8d4;strokeColor=#82b366;" vertex="1" parent="1">
          <mxGeometry x="320" y="40" width="40" height="40" as="geometry" />
        </mxCell>
        <mxCell id="eDO9T0eiQl6-XyQjg8_s-8" value="&lt;font style=&quot;font-size: 15px&quot; face=&quot;Comic Sans MS&quot;&gt;3&lt;/font&gt;" style="rounded=0;whiteSpace=wrap;html=1;fillColor=#d5e8d4;strokeColor=#82b366;" vertex="1" parent="1">
          <mxGeometry x="360" y="40" width="40" height="40" as="geometry" />
        </mxCell>
        <mxCell id="eDO9T0eiQl6-XyQjg8_s-9" value="&lt;font style=&quot;font-size: 15px&quot; face=&quot;Comic Sans MS&quot;&gt;1&lt;/font&gt;" style="rounded=0;whiteSpace=wrap;html=1;fillColor=#d5e8d4;strokeColor=#82b366;" vertex="1" parent="1">
          <mxGeometry x="400" y="40" width="40" height="40" as="geometry" />
        </mxCell>
        <mxCell id="eDO9T0eiQl6-XyQjg8_s-11" value="&lt;font style=&quot;font-size: 14px&quot;&gt;原始数组&lt;/font&gt;" style="text;html=1;strokeColor=none;fillColor=none;align=center;verticalAlign=middle;whiteSpace=wrap;rounded=0;fontFamily=Comic Sans MS;fontSize=15;" vertex="1" parent="1">
          <mxGeometry x="300" width="80" height="40" as="geometry" />
        </mxCell>
        <mxCell id="eDO9T0eiQl6-XyQjg8_s-12" value="&lt;font style=&quot;font-size: 15px&quot; face=&quot;Comic Sans MS&quot;&gt;2&lt;/font&gt;" style="rounded=0;whiteSpace=wrap;html=1;fillColor=#dae8fc;strokeColor=#6c8ebf;gradientColor=none;strokeWidth=2;" vertex="1" parent="1">
          <mxGeometry x="240" y="200" width="40" height="40" as="geometry" />
        </mxCell>
        <mxCell id="eDO9T0eiQl6-XyQjg8_s-13" value="" style="rounded=0;whiteSpace=wrap;html=1;fillColor=#dae8fc;strokeColor=#6c8ebf;" vertex="1" parent="1">
          <mxGeometry x="280" y="200" width="40" height="40" as="geometry" />
        </mxCell>
        <mxCell id="eDO9T0eiQl6-XyQjg8_s-14" value="" style="rounded=0;whiteSpace=wrap;html=1;fillColor=#dae8fc;strokeColor=#6c8ebf;" vertex="1" parent="1">
          <mxGeometry x="320" y="200" width="40" height="40" as="geometry" />
        </mxCell>
        <mxCell id="eDO9T0eiQl6-XyQjg8_s-15" value="" style="rounded=0;whiteSpace=wrap;html=1;fillColor=#dae8fc;strokeColor=#6c8ebf;" vertex="1" parent="1">
          <mxGeometry x="360" y="200" width="40" height="40" as="geometry" />
        </mxCell>
        <mxCell id="eDO9T0eiQl6-XyQjg8_s-16" value="" style="rounded=0;whiteSpace=wrap;html=1;fillColor=#dae8fc;strokeColor=#6c8ebf;" vertex="1" parent="1">
          <mxGeometry x="400" y="200" width="40" height="40" as="geometry" />
        </mxCell>
        <mxCell id="eDO9T0eiQl6-XyQjg8_s-18" value="&lt;font style=&quot;font-size: 15px&quot; face=&quot;Comic Sans MS&quot;&gt;0&lt;/font&gt;" style="rounded=0;whiteSpace=wrap;html=1;fillColor=#f8cecc;strokeColor=#b85450;gradientColor=none;strokeWidth=2;" vertex="1" parent="1">
          <mxGeometry x="240" y="240" width="40" height="40" as="geometry" />
        </mxCell>
        <mxCell id="eDO9T0eiQl6-XyQjg8_s-19" value="" style="rounded=0;whiteSpace=wrap;html=1;fillColor=#f8cecc;strokeColor=#b85450;" vertex="1" parent="1">
          <mxGeometry x="280" y="240" width="40" height="40" as="geometry" />
        </mxCell>
        <mxCell id="eDO9T0eiQl6-XyQjg8_s-20" value="" style="rounded=0;whiteSpace=wrap;html=1;fillColor=#f8cecc;strokeColor=#b85450;" vertex="1" parent="1">
          <mxGeometry x="320" y="240" width="40" height="40" as="geometry" />
        </mxCell>
        <mxCell id="eDO9T0eiQl6-XyQjg8_s-21" value="" style="rounded=0;whiteSpace=wrap;html=1;fillColor=#f8cecc;strokeColor=#b85450;" vertex="1" parent="1">
          <mxGeometry x="360" y="240" width="40" height="40" as="geometry" />
        </mxCell>
        <mxCell id="eDO9T0eiQl6-XyQjg8_s-22" value="" style="rounded=0;whiteSpace=wrap;html=1;fillColor=#f8cecc;strokeColor=#b85450;" vertex="1" parent="1">
          <mxGeometry x="400" y="240" width="40" height="40" as="geometry" />
        </mxCell>
        <mxCell id="eDO9T0eiQl6-XyQjg8_s-23" value="steal" style="text;html=1;strokeColor=none;fillColor=none;align=center;verticalAlign=middle;whiteSpace=wrap;rounded=0;fontFamily=Comic Sans MS;fontSize=14;" vertex="1" parent="1">
          <mxGeometry x="160" y="200" width="80" height="40" as="geometry" />
        </mxCell>
        <mxCell id="eDO9T0eiQl6-XyQjg8_s-24" value="not_steal" style="text;html=1;strokeColor=none;fillColor=none;align=center;verticalAlign=middle;whiteSpace=wrap;rounded=0;fontFamily=Comic Sans MS;fontSize=14;" vertex="1" parent="1">
          <mxGeometry x="160" y="240" width="80" height="40" as="geometry" />
        </mxCell>
        <mxCell id="eDO9T0eiQl6-XyQjg8_s-25" value="&lt;font style=&quot;font-size: 15px&quot; face=&quot;Comic Sans MS&quot;&gt;2&lt;/font&gt;" style="rounded=0;whiteSpace=wrap;html=1;fillColor=#dae8fc;strokeColor=#6c8ebf;" vertex="1" parent="1">
          <mxGeometry x="240" y="480" width="40" height="40" as="geometry" />
        </mxCell>
        <mxCell id="eDO9T0eiQl6-XyQjg8_s-26" value="&lt;font style=&quot;font-size: 15px&quot;&gt;7&lt;/font&gt;" style="rounded=0;whiteSpace=wrap;html=1;fillColor=#dae8fc;strokeColor=#6c8ebf;strokeWidth=2;" vertex="1" parent="1">
          <mxGeometry x="280" y="480" width="40" height="40" as="geometry" />
        </mxCell>
        <mxCell id="eDO9T0eiQl6-XyQjg8_s-27" value="" style="rounded=0;whiteSpace=wrap;html=1;fillColor=#dae8fc;strokeColor=#6c8ebf;" vertex="1" parent="1">
          <mxGeometry x="320" y="480" width="40" height="40" as="geometry" />
        </mxCell>
        <mxCell id="eDO9T0eiQl6-XyQjg8_s-28" value="" style="rounded=0;whiteSpace=wrap;html=1;fillColor=#dae8fc;strokeColor=#6c8ebf;" vertex="1" parent="1">
          <mxGeometry x="360" y="480" width="40" height="40" as="geometry" />
        </mxCell>
        <mxCell id="eDO9T0eiQl6-XyQjg8_s-29" value="" style="rounded=0;whiteSpace=wrap;html=1;fillColor=#dae8fc;strokeColor=#6c8ebf;" vertex="1" parent="1">
          <mxGeometry x="400" y="480" width="40" height="40" as="geometry" />
        </mxCell>
        <mxCell id="eDO9T0eiQl6-XyQjg8_s-30" value="&lt;font style=&quot;font-size: 15px&quot; face=&quot;Comic Sans MS&quot;&gt;0&lt;/font&gt;" style="rounded=0;whiteSpace=wrap;html=1;fillColor=#f8cecc;strokeColor=#b85450;" vertex="1" parent="1">
          <mxGeometry x="240" y="520" width="40" height="40" as="geometry" />
        </mxCell>
        <mxCell id="eDO9T0eiQl6-XyQjg8_s-31" value="&lt;font style=&quot;font-size: 15px&quot;&gt;2&lt;/font&gt;" style="rounded=0;whiteSpace=wrap;html=1;fillColor=#f8cecc;strokeColor=#b85450;strokeWidth=2;" vertex="1" parent="1">
          <mxGeometry x="280" y="520" width="40" height="40" as="geometry" />
        </mxCell>
        <mxCell id="eDO9T0eiQl6-XyQjg8_s-32" value="" style="rounded=0;whiteSpace=wrap;html=1;fillColor=#f8cecc;strokeColor=#b85450;" vertex="1" parent="1">
          <mxGeometry x="320" y="520" width="40" height="40" as="geometry" />
        </mxCell>
        <mxCell id="eDO9T0eiQl6-XyQjg8_s-33" value="" style="rounded=0;whiteSpace=wrap;html=1;fillColor=#f8cecc;strokeColor=#b85450;" vertex="1" parent="1">
          <mxGeometry x="360" y="520" width="40" height="40" as="geometry" />
        </mxCell>
        <mxCell id="eDO9T0eiQl6-XyQjg8_s-34" value="" style="rounded=0;whiteSpace=wrap;html=1;fillColor=#f8cecc;strokeColor=#b85450;" vertex="1" parent="1">
          <mxGeometry x="400" y="520" width="40" height="40" as="geometry" />
        </mxCell>
        <mxCell id="eDO9T0eiQl6-XyQjg8_s-35" value="steal" style="text;html=1;strokeColor=none;fillColor=none;align=center;verticalAlign=middle;whiteSpace=wrap;rounded=0;fontFamily=Comic Sans MS;fontSize=14;" vertex="1" parent="1">
          <mxGeometry x="160" y="480" width="80" height="40" as="geometry" />
        </mxCell>
        <mxCell id="eDO9T0eiQl6-XyQjg8_s-36" value="not_steal" style="text;html=1;strokeColor=none;fillColor=none;align=center;verticalAlign=middle;whiteSpace=wrap;rounded=0;fontFamily=Comic Sans MS;fontSize=14;" vertex="1" parent="1">
          <mxGeometry x="160" y="520" width="80" height="40" as="geometry" />
        </mxCell>
        <mxCell id="eDO9T0eiQl6-XyQjg8_s-42" value="&lt;font style=&quot;font-size: 15px&quot; face=&quot;Comic Sans MS&quot;&gt;2&lt;/font&gt;" style="rounded=0;whiteSpace=wrap;html=1;fillColor=#dae8fc;strokeColor=#6c8ebf;" vertex="1" parent="1">
          <mxGeometry x="600" y="200" width="40" height="40" as="geometry" />
        </mxCell>
        <mxCell id="eDO9T0eiQl6-XyQjg8_s-43" value="&lt;font style=&quot;font-size: 15px&quot;&gt;7&lt;/font&gt;" style="rounded=0;whiteSpace=wrap;html=1;fillColor=#dae8fc;strokeColor=#6c8ebf;" vertex="1" parent="1">
          <mxGeometry x="640" y="200" width="40" height="40" as="geometry" />
        </mxCell>
        <mxCell id="eDO9T0eiQl6-XyQjg8_s-44" value="&lt;font style=&quot;font-size: 15px&quot;&gt;11&lt;/font&gt;" style="rounded=0;whiteSpace=wrap;html=1;fillColor=#dae8fc;strokeColor=#6c8ebf;strokeWidth=2;" vertex="1" parent="1">
          <mxGeometry x="680" y="200" width="40" height="40" as="geometry" />
        </mxCell>
        <mxCell id="eDO9T0eiQl6-XyQjg8_s-45" value="" style="rounded=0;whiteSpace=wrap;html=1;fillColor=#dae8fc;strokeColor=#6c8ebf;" vertex="1" parent="1">
          <mxGeometry x="720" y="200" width="40" height="40" as="geometry" />
        </mxCell>
        <mxCell id="eDO9T0eiQl6-XyQjg8_s-46" value="" style="rounded=0;whiteSpace=wrap;html=1;fillColor=#dae8fc;strokeColor=#6c8ebf;" vertex="1" parent="1">
          <mxGeometry x="760" y="200" width="40" height="40" as="geometry" />
        </mxCell>
        <mxCell id="eDO9T0eiQl6-XyQjg8_s-47" value="&lt;font style=&quot;font-size: 15px&quot; face=&quot;Comic Sans MS&quot;&gt;0&lt;/font&gt;" style="rounded=0;whiteSpace=wrap;html=1;fillColor=#f8cecc;strokeColor=#b85450;" vertex="1" parent="1">
          <mxGeometry x="600" y="240" width="40" height="40" as="geometry" />
        </mxCell>
        <mxCell id="eDO9T0eiQl6-XyQjg8_s-48" value="&lt;font style=&quot;font-size: 15px&quot;&gt;2&lt;/font&gt;" style="rounded=0;whiteSpace=wrap;html=1;fillColor=#f8cecc;strokeColor=#b85450;" vertex="1" parent="1">
          <mxGeometry x="640" y="240" width="40" height="40" as="geometry" />
        </mxCell>
        <mxCell id="eDO9T0eiQl6-XyQjg8_s-49" value="&lt;font style=&quot;font-size: 15px&quot;&gt;7&lt;/font&gt;" style="rounded=0;whiteSpace=wrap;html=1;fillColor=#f8cecc;strokeColor=#b85450;strokeWidth=2;" vertex="1" parent="1">
          <mxGeometry x="680" y="240" width="40" height="40" as="geometry" />
        </mxCell>
        <mxCell id="eDO9T0eiQl6-XyQjg8_s-50" value="" style="rounded=0;whiteSpace=wrap;html=1;fillColor=#f8cecc;strokeColor=#b85450;" vertex="1" parent="1">
          <mxGeometry x="720" y="240" width="40" height="40" as="geometry" />
        </mxCell>
        <mxCell id="eDO9T0eiQl6-XyQjg8_s-51" value="" style="rounded=0;whiteSpace=wrap;html=1;fillColor=#f8cecc;strokeColor=#b85450;" vertex="1" parent="1">
          <mxGeometry x="760" y="240" width="40" height="40" as="geometry" />
        </mxCell>
        <mxCell id="eDO9T0eiQl6-XyQjg8_s-52" value="steal" style="text;html=1;strokeColor=none;fillColor=none;align=center;verticalAlign=middle;whiteSpace=wrap;rounded=0;fontFamily=Comic Sans MS;fontSize=14;" vertex="1" parent="1">
          <mxGeometry x="520" y="200" width="80" height="40" as="geometry" />
        </mxCell>
        <mxCell id="eDO9T0eiQl6-XyQjg8_s-53" value="not_steal" style="text;html=1;strokeColor=none;fillColor=none;align=center;verticalAlign=middle;whiteSpace=wrap;rounded=0;fontFamily=Comic Sans MS;fontSize=14;" vertex="1" parent="1">
          <mxGeometry x="520" y="240" width="80" height="40" as="geometry" />
        </mxCell>
        <mxCell id="eDO9T0eiQl6-XyQjg8_s-54" value="&lt;font style=&quot;font-size: 15px&quot; face=&quot;Comic Sans MS&quot;&gt;2&lt;/font&gt;" style="rounded=0;whiteSpace=wrap;html=1;fillColor=#dae8fc;strokeColor=#6c8ebf;" vertex="1" parent="1">
          <mxGeometry x="600" y="480" width="40" height="40" as="geometry" />
        </mxCell>
        <mxCell id="eDO9T0eiQl6-XyQjg8_s-55" value="&lt;font style=&quot;font-size: 15px&quot;&gt;7&lt;/font&gt;" style="rounded=0;whiteSpace=wrap;html=1;fillColor=#dae8fc;strokeColor=#6c8ebf;" vertex="1" parent="1">
          <mxGeometry x="640" y="480" width="40" height="40" as="geometry" />
        </mxCell>
        <mxCell id="eDO9T0eiQl6-XyQjg8_s-56" value="&lt;font style=&quot;font-size: 15px&quot;&gt;11&lt;/font&gt;" style="rounded=0;whiteSpace=wrap;html=1;fillColor=#dae8fc;strokeColor=#6c8ebf;" vertex="1" parent="1">
          <mxGeometry x="680" y="480" width="40" height="40" as="geometry" />
        </mxCell>
        <mxCell id="eDO9T0eiQl6-XyQjg8_s-57" value="&lt;font style=&quot;font-size: 15px&quot;&gt;10&lt;/font&gt;" style="rounded=0;whiteSpace=wrap;html=1;fillColor=#dae8fc;strokeColor=#6c8ebf;strokeWidth=2;" vertex="1" parent="1">
          <mxGeometry x="720" y="480" width="40" height="40" as="geometry" />
        </mxCell>
        <mxCell id="eDO9T0eiQl6-XyQjg8_s-58" value="" style="rounded=0;whiteSpace=wrap;html=1;fillColor=#dae8fc;strokeColor=#6c8ebf;" vertex="1" parent="1">
          <mxGeometry x="760" y="480" width="40" height="40" as="geometry" />
        </mxCell>
        <mxCell id="eDO9T0eiQl6-XyQjg8_s-59" value="&lt;font style=&quot;font-size: 15px&quot; face=&quot;Comic Sans MS&quot;&gt;0&lt;/font&gt;" style="rounded=0;whiteSpace=wrap;html=1;fillColor=#f8cecc;strokeColor=#b85450;" vertex="1" parent="1">
          <mxGeometry x="600" y="520" width="40" height="40" as="geometry" />
        </mxCell>
        <mxCell id="eDO9T0eiQl6-XyQjg8_s-60" value="&lt;font style=&quot;font-size: 15px&quot;&gt;2&lt;/font&gt;" style="rounded=0;whiteSpace=wrap;html=1;fillColor=#f8cecc;strokeColor=#b85450;" vertex="1" parent="1">
          <mxGeometry x="640" y="520" width="40" height="40" as="geometry" />
        </mxCell>
        <mxCell id="eDO9T0eiQl6-XyQjg8_s-61" value="&lt;font style=&quot;font-size: 15px&quot;&gt;7&lt;/font&gt;" style="rounded=0;whiteSpace=wrap;html=1;fillColor=#f8cecc;strokeColor=#b85450;" vertex="1" parent="1">
          <mxGeometry x="680" y="520" width="40" height="40" as="geometry" />
        </mxCell>
        <mxCell id="eDO9T0eiQl6-XyQjg8_s-62" value="&lt;font style=&quot;font-size: 15px&quot;&gt;11&lt;/font&gt;" style="rounded=0;whiteSpace=wrap;html=1;fillColor=#f8cecc;strokeColor=#b85450;strokeWidth=2;" vertex="1" parent="1">
          <mxGeometry x="720" y="520" width="40" height="40" as="geometry" />
        </mxCell>
        <mxCell id="eDO9T0eiQl6-XyQjg8_s-63" value="" style="rounded=0;whiteSpace=wrap;html=1;fillColor=#f8cecc;strokeColor=#b85450;" vertex="1" parent="1">
          <mxGeometry x="760" y="520" width="40" height="40" as="geometry" />
        </mxCell>
        <mxCell id="eDO9T0eiQl6-XyQjg8_s-64" value="steal" style="text;html=1;strokeColor=none;fillColor=none;align=center;verticalAlign=middle;whiteSpace=wrap;rounded=0;fontFamily=Comic Sans MS;fontSize=14;" vertex="1" parent="1">
          <mxGeometry x="520" y="480" width="80" height="40" as="geometry" />
        </mxCell>
        <mxCell id="eDO9T0eiQl6-XyQjg8_s-65" value="not_steal" style="text;html=1;strokeColor=none;fillColor=none;align=center;verticalAlign=middle;whiteSpace=wrap;rounded=0;fontFamily=Comic Sans MS;fontSize=14;" vertex="1" parent="1">
          <mxGeometry x="520" y="520" width="80" height="40" as="geometry" />
        </mxCell>
        <mxCell id="eDO9T0eiQl6-XyQjg8_s-66" value="&lt;font style=&quot;font-size: 15px&quot; face=&quot;Comic Sans MS&quot;&gt;2&lt;/font&gt;" style="rounded=0;whiteSpace=wrap;html=1;fillColor=#dae8fc;strokeColor=#6c8ebf;" vertex="1" parent="1">
          <mxGeometry x="960" y="200" width="40" height="40" as="geometry" />
        </mxCell>
        <mxCell id="eDO9T0eiQl6-XyQjg8_s-67" value="&lt;font style=&quot;font-size: 15px&quot;&gt;7&lt;/font&gt;" style="rounded=0;whiteSpace=wrap;html=1;fillColor=#dae8fc;strokeColor=#6c8ebf;" vertex="1" parent="1">
          <mxGeometry x="1000" y="200" width="40" height="40" as="geometry" />
        </mxCell>
        <mxCell id="eDO9T0eiQl6-XyQjg8_s-68" value="&lt;font style=&quot;font-size: 15px&quot;&gt;11&lt;/font&gt;" style="rounded=0;whiteSpace=wrap;html=1;fillColor=#dae8fc;strokeColor=#6c8ebf;" vertex="1" parent="1">
          <mxGeometry x="1040" y="200" width="40" height="40" as="geometry" />
        </mxCell>
        <mxCell id="eDO9T0eiQl6-XyQjg8_s-69" value="&lt;font style=&quot;font-size: 15px&quot;&gt;10&lt;/font&gt;" style="rounded=0;whiteSpace=wrap;html=1;fillColor=#dae8fc;strokeColor=#6c8ebf;" vertex="1" parent="1">
          <mxGeometry x="1080" y="200" width="40" height="40" as="geometry" />
        </mxCell>
        <mxCell id="eDO9T0eiQl6-XyQjg8_s-70" value="&lt;font style=&quot;font-size: 15px&quot;&gt;12&lt;/font&gt;" style="rounded=0;whiteSpace=wrap;html=1;fillColor=#dae8fc;strokeColor=#6c8ebf;strokeWidth=2;" vertex="1" parent="1">
          <mxGeometry x="1120" y="200" width="40" height="40" as="geometry" />
        </mxCell>
        <mxCell id="eDO9T0eiQl6-XyQjg8_s-71" value="&lt;font style=&quot;font-size: 15px&quot; face=&quot;Comic Sans MS&quot;&gt;0&lt;/font&gt;" style="rounded=0;whiteSpace=wrap;html=1;fillColor=#f8cecc;strokeColor=#b85450;" vertex="1" parent="1">
          <mxGeometry x="960" y="240" width="40" height="40" as="geometry" />
        </mxCell>
        <mxCell id="eDO9T0eiQl6-XyQjg8_s-72" value="&lt;font style=&quot;font-size: 15px&quot;&gt;2&lt;/font&gt;" style="rounded=0;whiteSpace=wrap;html=1;fillColor=#f8cecc;strokeColor=#b85450;" vertex="1" parent="1">
          <mxGeometry x="1000" y="240" width="40" height="40" as="geometry" />
        </mxCell>
        <mxCell id="eDO9T0eiQl6-XyQjg8_s-73" value="&lt;font style=&quot;font-size: 15px&quot;&gt;7&lt;/font&gt;" style="rounded=0;whiteSpace=wrap;html=1;fillColor=#f8cecc;strokeColor=#b85450;" vertex="1" parent="1">
          <mxGeometry x="1040" y="240" width="40" height="40" as="geometry" />
        </mxCell>
        <mxCell id="eDO9T0eiQl6-XyQjg8_s-74" value="&lt;font style=&quot;font-size: 15px&quot;&gt;11&lt;/font&gt;" style="rounded=0;whiteSpace=wrap;html=1;fillColor=#f8cecc;strokeColor=#b85450;" vertex="1" parent="1">
          <mxGeometry x="1080" y="240" width="40" height="40" as="geometry" />
        </mxCell>
        <mxCell id="eDO9T0eiQl6-XyQjg8_s-75" value="&lt;font style=&quot;font-size: 15px&quot;&gt;11&lt;/font&gt;" style="rounded=0;whiteSpace=wrap;html=1;fillColor=#f8cecc;strokeColor=#b85450;strokeWidth=2;" vertex="1" parent="1">
          <mxGeometry x="1120" y="240" width="40" height="40" as="geometry" />
        </mxCell>
        <mxCell id="eDO9T0eiQl6-XyQjg8_s-76" value="steal" style="text;html=1;strokeColor=none;fillColor=none;align=center;verticalAlign=middle;whiteSpace=wrap;rounded=0;fontFamily=Comic Sans MS;fontSize=14;" vertex="1" parent="1">
          <mxGeometry x="880" y="200" width="80" height="40" as="geometry" />
        </mxCell>
        <mxCell id="eDO9T0eiQl6-XyQjg8_s-77" value="not_steal" style="text;html=1;strokeColor=none;fillColor=none;align=center;verticalAlign=middle;whiteSpace=wrap;rounded=0;fontFamily=Comic Sans MS;fontSize=14;" vertex="1" parent="1">
          <mxGeometry x="880" y="240" width="80" height="40" as="geometry" />
        </mxCell>
        <mxCell id="eDO9T0eiQl6-XyQjg8_s-78" value="&lt;font style=&quot;font-size: 11px&quot; color=&quot;#3399ff&quot;&gt;&lt;font style=&quot;font-size: 11px&quot;&gt;steal[1] = not_steal[0] + nums[1] = 7&lt;/font&gt;&amp;nbsp;&lt;/font&gt;" style="text;html=1;strokeColor=none;fillColor=none;align=center;verticalAlign=middle;whiteSpace=wrap;rounded=0;fontFamily=Comic Sans MS;fontSize=15;opacity=0;" vertex="1" parent="1">
          <mxGeometry x="200" y="440" width="280" height="40" as="geometry" />
        </mxCell>
        <mxCell id="eDO9T0eiQl6-XyQjg8_s-79" value="&lt;font style=&quot;font-size: 11px&quot; color=&quot;#ea6b66&quot;&gt;&lt;font style=&quot;font-size: 11px&quot;&gt;not_steal[1] = max(not_steal[0] + steal[0])&lt;/font&gt;&amp;nbsp; = 2&lt;/font&gt;" style="text;html=1;strokeColor=none;fillColor=none;align=center;verticalAlign=middle;whiteSpace=wrap;rounded=0;fontFamily=Comic Sans MS;fontSize=15;opacity=0;" vertex="1" parent="1">
          <mxGeometry x="200" y="560" width="280" height="40" as="geometry" />
        </mxCell>
        <mxCell id="eDO9T0eiQl6-XyQjg8_s-80" value="&lt;font style=&quot;font-size: 11px&quot; color=&quot;#3399ff&quot;&gt;&lt;font style=&quot;font-size: 11px&quot;&gt;steal[0] = nums[0] = 2&lt;/font&gt;&amp;nbsp;&lt;/font&gt;" style="text;html=1;strokeColor=none;fillColor=none;align=center;verticalAlign=middle;whiteSpace=wrap;rounded=0;fontFamily=Comic Sans MS;fontSize=15;opacity=0;" vertex="1" parent="1">
          <mxGeometry x="200" y="160" width="280" height="40" as="geometry" />
        </mxCell>
        <mxCell id="eDO9T0eiQl6-XyQjg8_s-81" value="&lt;font style=&quot;font-size: 11px&quot; color=&quot;#ea6b66&quot;&gt;&lt;font style=&quot;font-size: 11px&quot;&gt;not_steal[0] = 0&lt;/font&gt;&lt;/font&gt;" style="text;html=1;strokeColor=none;fillColor=none;align=center;verticalAlign=middle;whiteSpace=wrap;rounded=0;fontFamily=Comic Sans MS;fontSize=15;opacity=0;" vertex="1" parent="1">
          <mxGeometry x="200" y="280" width="280" height="40" as="geometry" />
        </mxCell>
        <mxCell id="eDO9T0eiQl6-XyQjg8_s-82" value="&lt;font style=&quot;font-size: 11px&quot; color=&quot;#3399ff&quot;&gt;&lt;font style=&quot;font-size: 11px&quot;&gt;steal[2] = not_steal[1] + nums[2] = 11&lt;/font&gt;&lt;/font&gt;" style="text;html=1;strokeColor=none;fillColor=none;align=center;verticalAlign=middle;whiteSpace=wrap;rounded=0;fontFamily=Comic Sans MS;fontSize=15;opacity=0;" vertex="1" parent="1">
          <mxGeometry x="560" y="160" width="280" height="40" as="geometry" />
        </mxCell>
        <mxCell id="eDO9T0eiQl6-XyQjg8_s-83" value="&lt;font style=&quot;font-size: 11px&quot; color=&quot;#ea6b66&quot;&gt;&lt;font style=&quot;font-size: 11px&quot;&gt;not_steal[2] = max(not_steal[1] + steal[1]) = 7&lt;/font&gt;&amp;nbsp;&lt;/font&gt;" style="text;html=1;strokeColor=none;fillColor=none;align=center;verticalAlign=middle;whiteSpace=wrap;rounded=0;fontFamily=Comic Sans MS;fontSize=15;opacity=0;" vertex="1" parent="1">
          <mxGeometry x="560" y="280" width="280" height="40" as="geometry" />
        </mxCell>
        <mxCell id="eDO9T0eiQl6-XyQjg8_s-84" value="&lt;font style=&quot;font-size: 11px&quot; color=&quot;#3399ff&quot;&gt;&lt;font style=&quot;font-size: 11px&quot;&gt;steal[3] = not_steal[2] + nums[3] = 10&lt;/font&gt;&amp;nbsp;&lt;/font&gt;" style="text;html=1;strokeColor=none;fillColor=none;align=center;verticalAlign=middle;whiteSpace=wrap;rounded=0;fontFamily=Comic Sans MS;fontSize=15;opacity=0;" vertex="1" parent="1">
          <mxGeometry x="560" y="440" width="280" height="40" as="geometry" />
        </mxCell>
        <mxCell id="eDO9T0eiQl6-XyQjg8_s-85" value="&lt;font style=&quot;font-size: 11px&quot; color=&quot;#ea6b66&quot;&gt;&lt;font style=&quot;font-size: 11px&quot;&gt;not_steal[3] = max(not_steal[2] + steal[2])&lt;/font&gt;&amp;nbsp; = 11&lt;/font&gt;" style="text;html=1;strokeColor=none;fillColor=none;align=center;verticalAlign=middle;whiteSpace=wrap;rounded=0;fontFamily=Comic Sans MS;fontSize=15;opacity=0;" vertex="1" parent="1">
          <mxGeometry x="560" y="560" width="280" height="40" as="geometry" />
        </mxCell>
        <mxCell id="eDO9T0eiQl6-XyQjg8_s-86" value="&lt;font style=&quot;font-size: 11px&quot; color=&quot;#3399ff&quot;&gt;&lt;font style=&quot;font-size: 11px&quot;&gt;steal[4] = not_steal[3] + nums[4] = 12&lt;/font&gt;&lt;/font&gt;" style="text;html=1;strokeColor=none;fillColor=none;align=center;verticalAlign=middle;whiteSpace=wrap;rounded=0;fontFamily=Comic Sans MS;fontSize=15;opacity=0;" vertex="1" parent="1">
          <mxGeometry x="920" y="160" width="280" height="40" as="geometry" />
        </mxCell>
        <mxCell id="eDO9T0eiQl6-XyQjg8_s-87" value="&lt;font style=&quot;font-size: 11px&quot; color=&quot;#ea6b66&quot;&gt;&lt;font style=&quot;font-size: 11px&quot;&gt;not_steal[4] = max(not_steal[3] + steal[3]) = 11&lt;/font&gt;&amp;nbsp;&lt;/font&gt;" style="text;html=1;strokeColor=none;fillColor=none;align=center;verticalAlign=middle;whiteSpace=wrap;rounded=0;fontFamily=Comic Sans MS;fontSize=15;opacity=0;" vertex="1" parent="1">
          <mxGeometry x="920" y="280" width="280" height="40" as="geometry" />
        </mxCell>
        <mxCell id="eDO9T0eiQl6-XyQjg8_s-88" value="" style="rounded=0;whiteSpace=wrap;html=1;fillColor=#d5e8d4;strokeColor=#82b366;" vertex="1" parent="1">
          <mxGeometry x="240" y="720" width="40" height="40" as="geometry" />
        </mxCell>
        <mxCell id="eDO9T0eiQl6-XyQjg8_s-89" value="" style="rounded=0;whiteSpace=wrap;html=1;fillColor=#d5e8d4;strokeColor=#82b366;" vertex="1" parent="1">
          <mxGeometry x="280" y="720" width="40" height="40" as="geometry" />
        </mxCell>
        <mxCell id="eDO9T0eiQl6-XyQjg8_s-90" value="" style="rounded=0;whiteSpace=wrap;html=1;fillColor=#d5e8d4;strokeColor=#82b366;" vertex="1" parent="1">
          <mxGeometry x="320" y="720" width="40" height="40" as="geometry" />
        </mxCell>
        <mxCell id="eDO9T0eiQl6-XyQjg8_s-91" value="" style="rounded=0;whiteSpace=wrap;html=1;fillColor=#d5e8d4;strokeColor=#82b366;" vertex="1" parent="1">
          <mxGeometry x="360" y="720" width="210" height="40" as="geometry" />
        </mxCell>
        <mxCell id="eDO9T0eiQl6-XyQjg8_s-93" value="&lt;span style=&quot;font-size: 14px&quot;&gt;原问题:&lt;/span&gt;&lt;i&gt;&lt;b&gt;从第0到第N个房子中能偷取到的最大的金额&lt;/b&gt;&lt;/i&gt;&lt;div class=&quot;okr-block-clipboard&quot;&gt;&lt;/div&gt;" style="text;html=1;strokeColor=none;fillColor=none;align=center;verticalAlign=middle;whiteSpace=wrap;rounded=0;fontFamily=Comic Sans MS;fontSize=15;" vertex="1" parent="1">
          <mxGeometry x="240" y="680" width="400" height="40" as="geometry" />
        </mxCell>
        <mxCell id="eDO9T0eiQl6-XyQjg8_s-95" value="" style="rounded=0;whiteSpace=wrap;html=1;fillColor=#d5e8d4;strokeColor=#82b366;" vertex="1" parent="1">
          <mxGeometry x="560" y="720" width="40" height="40" as="geometry" />
        </mxCell>
        <mxCell id="eDO9T0eiQl6-XyQjg8_s-96" value="" style="rounded=0;whiteSpace=wrap;html=1;fillColor=#d5e8d4;strokeColor=#82b366;" vertex="1" parent="1">
          <mxGeometry x="600" y="720" width="40" height="40" as="geometry" />
        </mxCell>
        <mxCell id="eDO9T0eiQl6-XyQjg8_s-97" value="0" style="rounded=0;whiteSpace=wrap;html=1;fillColor=#d5e8d4;strokeColor=#82b366;opacity=0;" vertex="1" parent="1">
          <mxGeometry x="240" y="760" width="40" height="40" as="geometry" />
        </mxCell>
        <mxCell id="eDO9T0eiQl6-XyQjg8_s-98" value="1" style="rounded=0;whiteSpace=wrap;html=1;fillColor=#d5e8d4;strokeColor=#82b366;opacity=0;" vertex="1" parent="1">
          <mxGeometry x="280" y="760" width="40" height="40" as="geometry" />
        </mxCell>
        <mxCell id="eDO9T0eiQl6-XyQjg8_s-99" value="2" style="rounded=0;whiteSpace=wrap;html=1;fillColor=#d5e8d4;strokeColor=#82b366;opacity=0;" vertex="1" parent="1">
          <mxGeometry x="320" y="760" width="40" height="40" as="geometry" />
        </mxCell>
        <mxCell id="eDO9T0eiQl6-XyQjg8_s-103" value="N-1" style="rounded=0;whiteSpace=wrap;html=1;fillColor=#d5e8d4;strokeColor=#82b366;opacity=0;" vertex="1" parent="1">
          <mxGeometry x="560" y="760" width="40" height="40" as="geometry" />
        </mxCell>
        <mxCell id="eDO9T0eiQl6-XyQjg8_s-104" value="N" style="rounded=0;whiteSpace=wrap;html=1;fillColor=#d5e8d4;strokeColor=#82b366;opacity=0;" vertex="1" parent="1">
          <mxGeometry x="600" y="760" width="40" height="40" as="geometry" />
        </mxCell>
        <mxCell id="eDO9T0eiQl6-XyQjg8_s-105" value="&lt;font color=&quot;#000000&quot; style=&quot;font-size: 14px&quot;&gt;......&lt;/font&gt;" style="text;html=1;strokeColor=none;fillColor=none;align=center;verticalAlign=middle;whiteSpace=wrap;rounded=0;fontFamily=Comic Sans MS;fontSize=11;fontColor=#3399FF;opacity=0;" vertex="1" parent="1">
          <mxGeometry x="360" y="760" width="200" height="40" as="geometry" />
        </mxCell>
        <mxCell id="eDO9T0eiQl6-XyQjg8_s-107" value="" style="rounded=0;whiteSpace=wrap;html=1;fillColor=#fff2cc;strokeColor=#d6b656;" vertex="1" parent="1">
          <mxGeometry x="240" y="880" width="40" height="40" as="geometry" />
        </mxCell>
        <mxCell id="eDO9T0eiQl6-XyQjg8_s-108" value="" style="rounded=0;whiteSpace=wrap;html=1;fillColor=#fff2cc;strokeColor=#d6b656;" vertex="1" parent="1">
          <mxGeometry x="280" y="880" width="40" height="40" as="geometry" />
        </mxCell>
        <mxCell id="eDO9T0eiQl6-XyQjg8_s-109" value="" style="rounded=0;whiteSpace=wrap;html=1;fillColor=#fff2cc;strokeColor=#d6b656;" vertex="1" parent="1">
          <mxGeometry x="320" y="880" width="40" height="40" as="geometry" />
        </mxCell>
        <mxCell id="eDO9T0eiQl6-XyQjg8_s-110" value="" style="rounded=0;whiteSpace=wrap;html=1;fillColor=#fff2cc;strokeColor=#d6b656;" vertex="1" parent="1">
          <mxGeometry x="360" y="880" width="210" height="40" as="geometry" />
        </mxCell>
        <mxCell id="eDO9T0eiQl6-XyQjg8_s-111" value="&lt;span style=&quot;font-size: 14px&quot;&gt;子问题:&lt;/span&gt;&lt;i&gt;&lt;b&gt;从第0到第N-1个房子中能偷取到的最大的金额&lt;/b&gt;&lt;/i&gt;&lt;div class=&quot;okr-block-clipboard&quot;&gt;&lt;/div&gt;" style="text;html=1;strokeColor=none;fillColor=none;align=center;verticalAlign=middle;whiteSpace=wrap;rounded=0;fontFamily=Comic Sans MS;fontSize=15;" vertex="1" parent="1">
          <mxGeometry x="240" y="840" width="400" height="40" as="geometry" />
        </mxCell>
        <mxCell id="eDO9T0eiQl6-XyQjg8_s-112" value="" style="rounded=0;whiteSpace=wrap;html=1;fillColor=#fff2cc;strokeColor=#d6b656;" vertex="1" parent="1">
          <mxGeometry x="560" y="880" width="40" height="40" as="geometry" />
        </mxCell>
        <mxCell id="eDO9T0eiQl6-XyQjg8_s-113" value="" style="rounded=0;whiteSpace=wrap;html=1;fillColor=#d5e8d4;strokeColor=#82b366;" vertex="1" parent="1">
          <mxGeometry x="600" y="880" width="40" height="40" as="geometry" />
        </mxCell>
        <mxCell id="eDO9T0eiQl6-XyQjg8_s-114" value="0" style="rounded=0;whiteSpace=wrap;html=1;fillColor=#d5e8d4;strokeColor=#82b366;opacity=0;" vertex="1" parent="1">
          <mxGeometry x="240" y="920" width="40" height="40" as="geometry" />
        </mxCell>
        <mxCell id="eDO9T0eiQl6-XyQjg8_s-115" value="1" style="rounded=0;whiteSpace=wrap;html=1;fillColor=#d5e8d4;strokeColor=#82b366;opacity=0;" vertex="1" parent="1">
          <mxGeometry x="280" y="920" width="40" height="40" as="geometry" />
        </mxCell>
        <mxCell id="eDO9T0eiQl6-XyQjg8_s-116" value="2" style="rounded=0;whiteSpace=wrap;html=1;fillColor=#d5e8d4;strokeColor=#82b366;opacity=0;" vertex="1" parent="1">
          <mxGeometry x="320" y="920" width="40" height="40" as="geometry" />
        </mxCell>
        <mxCell id="eDO9T0eiQl6-XyQjg8_s-117" value="N-1" style="rounded=0;whiteSpace=wrap;html=1;fillColor=#d5e8d4;strokeColor=#82b366;opacity=0;" vertex="1" parent="1">
          <mxGeometry x="560" y="920" width="40" height="40" as="geometry" />
        </mxCell>
        <mxCell id="eDO9T0eiQl6-XyQjg8_s-118" value="N" style="rounded=0;whiteSpace=wrap;html=1;fillColor=#d5e8d4;strokeColor=#82b366;opacity=0;" vertex="1" parent="1">
          <mxGeometry x="600" y="920" width="40" height="40" as="geometry" />
        </mxCell>
        <mxCell id="eDO9T0eiQl6-XyQjg8_s-119" value="&lt;font color=&quot;#000000&quot; style=&quot;font-size: 14px&quot;&gt;......&lt;/font&gt;" style="text;html=1;strokeColor=none;fillColor=none;align=center;verticalAlign=middle;whiteSpace=wrap;rounded=0;fontFamily=Comic Sans MS;fontSize=11;fontColor=#3399FF;opacity=0;" vertex="1" parent="1">
          <mxGeometry x="360" y="920" width="200" height="40" as="geometry" />
        </mxCell>
        <mxCell id="eDO9T0eiQl6-XyQjg8_s-120" value="" style="rounded=0;whiteSpace=wrap;html=1;fillColor=#fff2cc;strokeColor=#d6b656;" vertex="1" parent="1">
          <mxGeometry x="240" y="1040" width="40" height="40" as="geometry" />
        </mxCell>
        <mxCell id="eDO9T0eiQl6-XyQjg8_s-121" value="" style="rounded=0;whiteSpace=wrap;html=1;fillColor=#fff2cc;strokeColor=#d6b656;" vertex="1" parent="1">
          <mxGeometry x="280" y="1040" width="40" height="40" as="geometry" />
        </mxCell>
        <mxCell id="eDO9T0eiQl6-XyQjg8_s-122" value="" style="rounded=0;whiteSpace=wrap;html=1;fillColor=#fff2cc;strokeColor=#d6b656;" vertex="1" parent="1">
          <mxGeometry x="320" y="1040" width="40" height="40" as="geometry" />
        </mxCell>
        <mxCell id="eDO9T0eiQl6-XyQjg8_s-123" value="" style="rounded=0;whiteSpace=wrap;html=1;fillColor=#fff2cc;strokeColor=#d6b656;" vertex="1" parent="1">
          <mxGeometry x="360" y="1040" width="210" height="40" as="geometry" />
        </mxCell>
        <mxCell id="eDO9T0eiQl6-XyQjg8_s-124" value="&lt;span style=&quot;font-size: 14px&quot;&gt;拆解子问题:&lt;/span&gt;&lt;span&gt;&lt;b&gt;不偷第N-1个房子时，从第0到第N-1个房子中能偷取到的最大的金额是多少？&lt;/b&gt;&lt;/span&gt;&lt;span style=&quot;font-size: 14px&quot;&gt;&lt;br&gt;&lt;/span&gt;&lt;div class=&quot;okr-block-clipboard&quot;&gt;&lt;/div&gt;" style="text;html=1;strokeColor=none;fillColor=none;align=center;verticalAlign=middle;whiteSpace=wrap;rounded=0;fontFamily=Comic Sans MS;fontSize=15;" vertex="1" parent="1">
          <mxGeometry x="120" y="1000" width="640" height="40" as="geometry" />
        </mxCell>
        <mxCell id="eDO9T0eiQl6-XyQjg8_s-125" value="" style="rounded=0;whiteSpace=wrap;html=1;fillColor=#f8cecc;strokeColor=#b85450;" vertex="1" parent="1">
          <mxGeometry x="560" y="1040" width="40" height="40" as="geometry" />
        </mxCell>
        <mxCell id="eDO9T0eiQl6-XyQjg8_s-126" value="" style="rounded=0;whiteSpace=wrap;html=1;fillColor=#d5e8d4;strokeColor=#82b366;" vertex="1" parent="1">
          <mxGeometry x="600" y="1040" width="40" height="40" as="geometry" />
        </mxCell>
        <mxCell id="eDO9T0eiQl6-XyQjg8_s-127" value="0" style="rounded=0;whiteSpace=wrap;html=1;fillColor=#d5e8d4;strokeColor=#82b366;opacity=0;" vertex="1" parent="1">
          <mxGeometry x="240" y="1080" width="40" height="40" as="geometry" />
        </mxCell>
        <mxCell id="eDO9T0eiQl6-XyQjg8_s-128" value="1" style="rounded=0;whiteSpace=wrap;html=1;fillColor=#d5e8d4;strokeColor=#82b366;opacity=0;" vertex="1" parent="1">
          <mxGeometry x="280" y="1080" width="40" height="40" as="geometry" />
        </mxCell>
        <mxCell id="eDO9T0eiQl6-XyQjg8_s-129" value="2" style="rounded=0;whiteSpace=wrap;html=1;fillColor=#d5e8d4;strokeColor=#82b366;opacity=0;" vertex="1" parent="1">
          <mxGeometry x="320" y="1080" width="40" height="40" as="geometry" />
        </mxCell>
        <mxCell id="eDO9T0eiQl6-XyQjg8_s-130" value="N-1" style="rounded=0;whiteSpace=wrap;html=1;fillColor=#d5e8d4;strokeColor=#82b366;opacity=0;" vertex="1" parent="1">
          <mxGeometry x="560" y="1080" width="40" height="40" as="geometry" />
        </mxCell>
        <mxCell id="eDO9T0eiQl6-XyQjg8_s-131" value="N" style="rounded=0;whiteSpace=wrap;html=1;fillColor=#d5e8d4;strokeColor=#82b366;opacity=0;" vertex="1" parent="1">
          <mxGeometry x="600" y="1080" width="40" height="40" as="geometry" />
        </mxCell>
        <mxCell id="eDO9T0eiQl6-XyQjg8_s-132" value="&lt;font color=&quot;#000000&quot; style=&quot;font-size: 14px&quot;&gt;......&lt;/font&gt;" style="text;html=1;strokeColor=none;fillColor=none;align=center;verticalAlign=middle;whiteSpace=wrap;rounded=0;fontFamily=Comic Sans MS;fontSize=11;fontColor=#3399FF;opacity=0;" vertex="1" parent="1">
          <mxGeometry x="360" y="1080" width="200" height="40" as="geometry" />
        </mxCell>
        <mxCell id="eDO9T0eiQl6-XyQjg8_s-133" value="" style="rounded=0;whiteSpace=wrap;html=1;fillColor=#fff2cc;strokeColor=#d6b656;" vertex="1" parent="1">
          <mxGeometry x="240" y="1200" width="40" height="40" as="geometry" />
        </mxCell>
        <mxCell id="eDO9T0eiQl6-XyQjg8_s-134" value="" style="rounded=0;whiteSpace=wrap;html=1;fillColor=#fff2cc;strokeColor=#d6b656;" vertex="1" parent="1">
          <mxGeometry x="280" y="1200" width="40" height="40" as="geometry" />
        </mxCell>
        <mxCell id="eDO9T0eiQl6-XyQjg8_s-135" value="" style="rounded=0;whiteSpace=wrap;html=1;fillColor=#fff2cc;strokeColor=#d6b656;" vertex="1" parent="1">
          <mxGeometry x="320" y="1200" width="40" height="40" as="geometry" />
        </mxCell>
        <mxCell id="eDO9T0eiQl6-XyQjg8_s-136" value="" style="rounded=0;whiteSpace=wrap;html=1;fillColor=#fff2cc;strokeColor=#d6b656;" vertex="1" parent="1">
          <mxGeometry x="360" y="1200" width="210" height="40" as="geometry" />
        </mxCell>
        <mxCell id="eDO9T0eiQl6-XyQjg8_s-137" value="&lt;span style=&quot;font-size: 14px&quot;&gt;拆解子问题:&lt;/span&gt;&lt;b&gt;&lt;span&gt;偷第N-1个房子时，&lt;/span&gt;从第0到第N-1个房子中&lt;span&gt;能偷取到的最大的金额是多少？&lt;/span&gt;&lt;/b&gt;&lt;span style=&quot;font-size: 14px&quot;&gt;&lt;br&gt;&lt;/span&gt;&lt;div class=&quot;okr-block-clipboard&quot;&gt;&lt;/div&gt;" style="text;html=1;strokeColor=none;fillColor=none;align=center;verticalAlign=middle;whiteSpace=wrap;rounded=0;fontFamily=Comic Sans MS;fontSize=15;" vertex="1" parent="1">
          <mxGeometry x="120" y="1160" width="640" height="40" as="geometry" />
        </mxCell>
        <mxCell id="eDO9T0eiQl6-XyQjg8_s-138" value="" style="rounded=0;whiteSpace=wrap;html=1;fillColor=#dae8fc;strokeColor=#6c8ebf;" vertex="1" parent="1">
          <mxGeometry x="560" y="1200" width="40" height="40" as="geometry" />
        </mxCell>
        <mxCell id="eDO9T0eiQl6-XyQjg8_s-139" value="" style="rounded=0;whiteSpace=wrap;html=1;fillColor=#d5e8d4;strokeColor=#82b366;" vertex="1" parent="1">
          <mxGeometry x="600" y="1200" width="40" height="40" as="geometry" />
        </mxCell>
        <mxCell id="eDO9T0eiQl6-XyQjg8_s-140" value="0" style="rounded=0;whiteSpace=wrap;html=1;fillColor=#d5e8d4;strokeColor=#82b366;opacity=0;" vertex="1" parent="1">
          <mxGeometry x="240" y="1240" width="40" height="40" as="geometry" />
        </mxCell>
        <mxCell id="eDO9T0eiQl6-XyQjg8_s-141" value="1" style="rounded=0;whiteSpace=wrap;html=1;fillColor=#d5e8d4;strokeColor=#82b366;opacity=0;" vertex="1" parent="1">
          <mxGeometry x="280" y="1240" width="40" height="40" as="geometry" />
        </mxCell>
        <mxCell id="eDO9T0eiQl6-XyQjg8_s-142" value="2" style="rounded=0;whiteSpace=wrap;html=1;fillColor=#d5e8d4;strokeColor=#82b366;opacity=0;" vertex="1" parent="1">
          <mxGeometry x="320" y="1240" width="40" height="40" as="geometry" />
        </mxCell>
        <mxCell id="eDO9T0eiQl6-XyQjg8_s-143" value="N-1" style="rounded=0;whiteSpace=wrap;html=1;fillColor=#d5e8d4;strokeColor=#82b366;opacity=0;" vertex="1" parent="1">
          <mxGeometry x="560" y="1240" width="40" height="40" as="geometry" />
        </mxCell>
        <mxCell id="eDO9T0eiQl6-XyQjg8_s-144" value="N" style="rounded=0;whiteSpace=wrap;html=1;fillColor=#d5e8d4;strokeColor=#82b366;opacity=0;" vertex="1" parent="1">
          <mxGeometry x="600" y="1240" width="40" height="40" as="geometry" />
        </mxCell>
        <mxCell id="eDO9T0eiQl6-XyQjg8_s-145" value="&lt;font color=&quot;#000000&quot; style=&quot;font-size: 14px&quot;&gt;......&lt;/font&gt;" style="text;html=1;strokeColor=none;fillColor=none;align=center;verticalAlign=middle;whiteSpace=wrap;rounded=0;fontFamily=Comic Sans MS;fontSize=11;fontColor=#3399FF;opacity=0;" vertex="1" parent="1">
          <mxGeometry x="360" y="1240" width="200" height="40" as="geometry" />
        </mxCell>
      </root>
    </mxGraphModel>
  </diagram>
</mxfile>
